<?xml version="1.0" encoding="iso-8859-1"?>
<!-- Generator: Adobe Illustrator 24.1.0, SVG Export Plug-In . SVG Version: 6.00 Build 0)  -->
<svg version="1.1" id="_x31_111_xA0_&#x418;&#x437;&#x43E;&#x431;&#x440;&#x430;&#x436;&#x435;&#x43D;&#x438;&#x435;_1_"
	 xmlns="http://www.w3.org/2000/svg" xmlns:xlink="http://www.w3.org/1999/xlink" x="0px" y="0px" viewBox="0 0 102.124 116.07"
	 style="enable-background:new 0 0 102.124 116.07;" xml:space="preserve">
<g>
	<path style="fill:#FFFFFF;" d="M102.09,54.202c0,5.385,0.093,10.773-0.033,16.155c-0.083,3.549-2.008,6.327-4.459,8.724
		c-4.109,4.019-9.164,6.456-14.495,8.358c-8.137,2.903-16.568,4.312-25.174,4.817c-11.683,0.686-23.209-0.211-34.502-3.403
		c-5.981-1.691-11.706-3.981-16.672-7.828c-3.287-2.547-5.945-5.559-6.634-9.867c-0.057-0.353-0.095-0.713-0.096-1.07
		c-0.006-5.226-0.004-10.452,0.064-15.71c0.628,2.274,1.709,4.292,3.244,6.071c3.345,3.874,7.665,6.32,12.281,8.298
		c7.583,3.25,15.564,4.897,23.733,5.769c7.171,0.765,14.354,0.841,21.527,0.192c10.07-0.912,19.887-2.894,28.986-7.548
		c3.615-1.849,6.928-4.116,9.457-7.369C100.619,58.118,101.577,56.274,102.09,54.202z"/>
	<path style="fill:#FFFFFF;" d="M102.097,30.723c0,5.307,0.074,10.615-0.026,15.919c-0.067,3.558-1.941,6.345-4.378,8.765
		c-4.174,4.145-9.353,6.608-14.803,8.535c-8.995,3.179-18.321,4.54-27.827,4.875c-9.304,0.328-18.517-0.371-27.589-2.483
		c-7.465-1.738-14.662-4.196-20.819-8.963c-3.25-2.517-5.883-5.526-6.53-9.798c-0.124-0.822-0.109-1.67-0.11-2.506
		c-0.01-4.788-0.005-9.576-0.005-14.702c1.81,6.778,6.72,10.306,12.206,13.194c6.956,3.662,14.485,5.548,22.208,6.757
		c7.048,1.103,14.145,1.462,21.259,1.149c10.502-0.462,20.799-2.067,30.563-6.186c4.93-2.08,9.536-4.668,12.97-8.932
		C100.556,34.684,101.5,32.824,102.097,30.723z"/>
	<path style="fill:#FFFFFF;" d="M0.01,77.921c1.414,5.161,5.062,8.458,9.366,11.163c6.093,3.829,12.851,5.94,19.83,7.432
		c8.873,1.897,17.862,2.488,26.902,2.092c9.039-0.397,17.936-1.761,26.516-4.761c4.192-1.466,8.22-3.289,11.839-5.911
		c3.558-2.578,6.477-5.639,7.616-10.061c0,5.452,0.127,10.907-0.047,16.353c-0.107,3.345-2.005,5.986-4.307,8.303
		c-3.176,3.196-7.029,5.366-11.122,7.114c-7.621,3.253-15.635,4.94-23.848,5.803c-7.168,0.753-14.35,0.83-21.519,0.187
		c-9.908-0.888-19.573-2.836-28.56-7.333c-3.814-1.908-7.317-4.253-9.955-7.688c-1.72-2.24-2.739-4.731-2.721-7.615
		C0.033,87.973,0.01,82.947,0.01,77.921z"/>
	<path style="fill:#FFFFFF;" d="M51.031,0.001c10.76,0.022,21.335,1.293,31.548,4.841c5.539,1.924,10.792,4.405,15.057,8.57
		c2.057,2.009,3.658,4.322,4.242,7.204c0.717,3.542-0.422,6.608-2.555,9.367c-3.254,4.208-7.756,6.704-12.499,8.777
		c-7.467,3.264-15.338,4.978-23.422,5.85c-5.41,0.583-10.829,0.835-16.258,0.621c-10.692-0.421-21.173-1.981-31.123-6.154
		c-4.254-1.784-8.294-3.942-11.594-7.24c-2.089-2.088-3.69-4.469-4.213-7.473c-0.598-3.439,0.522-6.367,2.574-9.016
		C6.041,11.149,10.5,8.59,15.253,6.517c7.334-3.199,15.064-4.887,22.991-5.794C42.495,0.236,46.753-0.02,51.031,0.001z
		 M50.795,39.294c7.391-0.049,14.486-0.729,21.369-2.885c4.672-1.464,9.167-3.32,12.881-6.647c4.645-4.161,4.753-9.761,0.293-14.124
		c-0.744-0.728-1.55-1.378-2.408-1.968c-2.517-1.732-5.265-3.004-8.118-4.056C68.46,7.273,61.867,6.237,55.126,5.939
		c-8.311-0.368-16.525,0.178-24.529,2.579c-4.918,1.475-9.654,3.392-13.568,6.864c-4.515,4.005-4.682,9.593-0.443,13.873
		c2.818,2.845,6.336,4.548,9.998,5.976C34.436,38.291,42.652,39.223,50.795,39.294z"/>
	<path style="fill:#FFFFFF;" d="M38.541,25.407c2.938-0.058,5.647,0.331,8.198,1.472c1.551,0.694,3.189,1.559,3.219,3.483
		c0.03,1.939-1.576,2.879-3.15,3.515c-5.368,2.171-10.778,2.144-16.171,0.043c-0.82-0.32-1.553-0.81-2.186-1.432
		c-1.339-1.315-1.349-2.876,0.008-4.18c1.152-1.106,2.604-1.681,4.102-2.115C34.561,25.614,36.607,25.313,38.541,25.407z"/>
	<path style="fill:#FFFFFF;" d="M51.715,17.83c-3.623-0.002-6.46-0.348-9.082-1.662c-1.402-0.702-2.852-1.52-2.846-3.35
		c0.006-1.826,1.437-2.697,2.857-3.35c3.847-1.768,7.902-2.041,12.045-1.409c1.659,0.253,3.279,0.651,4.785,1.424
		c0.248,0.127,0.496,0.256,0.73,0.405c2.794,1.785,2.81,4.132-0.021,5.846C57.364,17.441,54.208,17.814,51.715,17.83z"/>
	<path style="fill:#FFFFFF;" d="M71.777,24.726c-2.759,0.043-5.266-0.317-7.68-1.239c-0.9-0.344-1.737-0.8-2.473-1.423
		c-1.78-1.506-1.771-3.223,0.036-4.721c0.996-0.826,2.157-1.37,3.389-1.719c4.562-1.295,9.116-1.304,13.644,0.188
		c0.799,0.263,1.552,0.629,2.253,1.087c2.547,1.664,2.564,3.903,0.042,5.593c-1.62,1.086-3.461,1.589-5.35,1.934
		C74.303,24.669,72.951,24.769,71.777,24.726z"/>
	<path style="fill:#FFFFFF;" d="M63.909,25.394c2.947-0.028,5.81,0.386,8.46,1.74c1.367,0.699,2.739,1.552,2.718,3.319
		c-0.02,1.703-1.354,2.555-2.688,3.217c-3.345,1.66-6.937,1.975-10.599,1.699c-1.708-0.129-3.403-0.408-5.008-1.045
		c-0.737-0.293-1.481-0.602-2.152-1.017c-2.769-1.71-2.797-4.053-0.031-5.762C57.452,25.787,60.647,25.41,63.909,25.394z"/>
	<path style="fill:#FFFFFF;" d="M30.716,24.728c-2.852,0.03-5.402-0.344-7.841-1.332c-0.741-0.3-1.445-0.676-2.078-1.171
		c-1.974-1.543-1.999-3.441-0.022-4.982c1.616-1.26,3.533-1.841,5.513-2.171c3.873-0.645,7.711-0.549,11.461,0.759
		c1.102,0.385,2.132,0.902,2.986,1.713c1.556,1.476,1.513,3.095-0.156,4.498c-1.409,1.184-3.112,1.753-4.872,2.162
		C33.991,24.603,32.247,24.782,30.716,24.728z"/>
	<path style="fill:#FFFFFF;" d="M50.986,24.739c-1.336,0.025-2.637-0.168-3.817-0.817c-1.407-0.774-1.465-2.01-0.042-2.704
		c2.581-1.259,5.24-1.212,7.855-0.033c0.547,0.246,1.056,0.661,1.069,1.335c0.014,0.736-0.552,1.126-1.122,1.426
		C53.699,24.594,52.361,24.777,50.986,24.739z"/>
</g>
</svg>
