<svg height="512" viewBox="0 0 128 128" width="512" xmlns="http://www.w3.org/2000/svg" xmlns:xlink="http://www.w3.org/1999/xlink"><linearGradient id="a" gradientUnits="userSpaceOnUse" x1="113.335" x2="14.665" y1="114.467" y2="15.797"><stop offset="0" stop-color="#76e2f8"/><stop offset="1" stop-color="#b9dd39"/></linearGradient><path d="m126.25 87.938h-9.031v-67.532a1.751 1.751 0 0 0 -1.75-1.75h-102.938a1.75 1.75 0 0 0 -1.75 1.75v67.532h-9.031a1.75 1.75 0 0 0 -1.75 1.75v9.389a1.754 1.754 0 0 0 .616 1.333l10.008 8.516a1.745 1.745 0 0 0 1.134.418h104.484a1.745 1.745 0 0 0 1.134-.418l10.008-8.516a1.754 1.754 0 0 0 .616-1.333v-9.389a1.75 1.75 0 0 0 -1.75-1.75zm-111.969-65.782h99.438v65.782h-99.438zm110.219 76.113-8.9 7.575h-103.2l-8.9-7.575v-6.831h37.2a6.211 6.211 0 0 0 5.589 8.953h35.422a1.75 1.75 0 0 0 0-3.5h-35.422a2.727 2.727 0 1 1 0-5.453h78.211zm-73.875-14.831h-5.75a1.75 1.75 0 0 1 0-3.5h5.75a1.75 1.75 0 0 1 0 3.5zm-17.375-1.75a1.75 1.75 0 0 1 -1.75 1.75h-10.969a1.75 1.75 0 0 1 -1.75-1.75v-53.282a1.75 1.75 0 0 1 1.75-1.75h86.938a1.751 1.751 0 0 1 1.75 1.75v53.282a1.751 1.751 0 0 1 -1.75 1.75h-43.469a1.75 1.75 0 1 1 0-3.5h41.719v-49.782h-83.438v49.782h9.219a1.75 1.75 0 0 1 1.75 1.75z" fill="url(#a)"/></svg>