<svg height="512" viewBox="0 0 128 128" width="512" xmlns="http://www.w3.org/2000/svg" xmlns:xlink="http://www.w3.org/1999/xlink"><linearGradient id="a" gradientUnits="userSpaceOnUse" x1="116.648" x2="11.227" y1="101.46" y2="-3.96"><stop offset="0" stop-color="#76e2f8"/><stop offset="1" stop-color="#b9dd39"/></linearGradient><path d="m126.25 6.242h-124.5a1.749 1.749 0 0 0 -1.75 1.75v74.494a1.749 1.749 0 0 0 1.75 1.75h43.25v21.5h-12.875a1.749 1.749 0 0 0 -1.75 1.75v12.519a1.749 1.749 0 0 0 1.75 1.75h63.5a1.749 1.749 0 0 0 1.75-1.75v-6.259a1.75 1.75 0 0 0 -3.5 0v4.509h-60v-9.019h54.281a1.75 1.75 0 0 0 0-3.5h-5.406v-21.5h43.5a1.749 1.749 0 0 0 1.75-1.75v-74.494a1.749 1.749 0 0 0 -1.75-1.75zm-47 99.5h-30.75v-21.5h30.75zm45.25-25h-121v-71h121zm-79.594-8.25a1.749 1.749 0 0 1 -1.75 1.75h-6a1.75 1.75 0 1 1 0-3.5h6a1.75 1.75 0 0 1 1.75 1.744zm-34.906-.006v-54.494a1.749 1.749 0 0 1 1.75-1.75h104.5a1.749 1.749 0 0 1 1.75 1.75v54.494a1.749 1.749 0 0 1 -1.75 1.75h-58.75a1.75 1.75 0 1 1 0-3.5h57v-50.994h-101v50.994h9.312a1.75 1.75 0 0 1 0 3.5h-11.062a1.749 1.749 0 0 1 -1.75-1.75z" fill="url(#a)"/></svg>