<svg height="512" viewBox="0 0 128 128" width="512" xmlns="http://www.w3.org/2000/svg" xmlns:xlink="http://www.w3.org/1999/xlink"><linearGradient id="a" gradientUnits="userSpaceOnUse" x1="112.937" x2="15.063" y1="112.934" y2="15.06"><stop offset="0" stop-color="#76e2f8"/><stop offset="1" stop-color="#b9dd39"/></linearGradient><path d="m26.753 80.834v-5.259a1.75 1.75 0 0 1 3.5 0v5.259a1.75 1.75 0 0 1 -3.5 0zm74.494 29.4v12.013a5.757 5.757 0 0 1 -5.747 5.753h-63a5.757 5.757 0 0 1 -5.75-5.75v-26.341a1.75 1.75 0 0 1 3.5 0v12.575h67.497v-102.737a2.252 2.252 0 0 0 -2.247-2.247h-6.1v3.556a1.75 1.75 0 0 1 -3.5 0v-3.556h-43.8v6.25a2.252 2.252 0 0 0 2.246 2.25h35.779a1.75 1.75 0 0 1 0 3.5h-35.779a5.757 5.757 0 0 1 -5.746-5.75v-6.25h-6.1a2.252 2.252 0 0 0 -2.25 2.25v54.75a1.75 1.75 0 0 1 -3.5 0v-54.753a5.757 5.757 0 0 1 5.75-5.747h63a5.757 5.757 0 0 1 5.75 5.75zm-3.5 1.75h-67.494v10.263a2.253 2.253 0 0 0 2.25 2.25h62.997a2.253 2.253 0 0 0 2.25-2.25zm-41.935 8.007h16.375a1.75 1.75 0 0 0 0-3.5h-16.375a1.75 1.75 0 0 0 0 3.5zm24.127 0h8.369a1.75 1.75 0 0 0 0-3.5h-8.369a1.75 1.75 0 0 0 0 3.5zm-40.247 0h8.369a1.75 1.75 0 0 0 0-3.5h-8.369a1.75 1.75 0 1 0 0 3.5z" fill="url(#a)"/></svg>