<?xml version="1.0"?>
<svg xmlns="http://www.w3.org/2000/svg" xmlns:xlink="http://www.w3.org/1999/xlink" width="512" height="512" viewBox="0 0 128 128"><defs><linearGradient id="a" x1="118.938" y1="118.938" x2="9.062" y2="9.062" gradientUnits="userSpaceOnUse"><stop offset="0" stop-color="#76e2f8"/><stop offset="1" stop-color="#b9dd39"/></linearGradient></defs><path d="M122.25,14.753H5.75A5.757,5.757,0,0,0,0,20.5V107.5a5.757,5.757,0,0,0,5.75,5.75h116.5A5.757,5.757,0,0,0,128,107.5V20.5A5.757,5.757,0,0,0,122.25,14.753Zm0,94.994H5.75A2.253,2.253,0,0,1,3.5,107.5V37.506H25.75a1.75,1.75,0,0,0,0-3.5H3.5V20.5a2.253,2.253,0,0,1,2.25-2.25h116.5a2.253,2.253,0,0,1,2.25,2.25v13.5H59.875a1.75,1.75,0,0,0,0,3.5H124.5V107.5A2.253,2.253,0,0,1,122.25,109.747ZM38.638,35.756a1.749,1.749,0,0,1,1.75-1.75h4.849a1.75,1.75,0,0,1,0,3.5H40.388A1.749,1.749,0,0,1,38.638,35.756Zm70.1-9.627a1.75,1.75,0,0,1,1.75-1.75h5.75a1.75,1.75,0,0,1,0,3.5h-5.75A1.75,1.75,0,0,1,108.742,26.129Zm-15.375,0a1.75,1.75,0,0,1,1.75-1.75h5.75a1.75,1.75,0,0,1,0,3.5h-5.75A1.75,1.75,0,0,1,93.367,26.129Zm-15.375,0a1.75,1.75,0,0,1,1.75-1.75h5.75a1.75,1.75,0,0,1,0,3.5h-5.75A1.75,1.75,0,0,1,77.992,26.129ZM116.25,44.005h-57a1.75,1.75,0,0,0-1.75,1.75v34.9a1.75,1.75,0,0,0,1.75,1.75h57a1.75,1.75,0,0,0,1.75-1.75v-34.9A1.75,1.75,0,0,0,116.25,44.005Zm-1.75,3.5V74.326L76.9,59.4a1.756,1.756,0,0,0-1.633.183L61,69.337V47.505Zm0,31.4H61V73.577L76.47,63,114.5,78.092ZM92.75,57.872A6.477,6.477,0,0,1,99.219,51.4a1.75,1.75,0,0,1,0,3.5,2.969,2.969,0,1,0,2.206,4.955,1.75,1.75,0,1,1,2.6,2.344,6.468,6.468,0,0,1-11.274-4.33ZM10,45.755a1.75,1.75,0,0,1,1.75-1.75H49.241a1.75,1.75,0,0,1,0,3.5H11.75A1.75,1.75,0,0,1,10,45.755Zm0,18.581a1.75,1.75,0,0,1,1.75-1.75H49.241a1.75,1.75,0,0,1,0,3.5H11.75A1.75,1.75,0,0,1,10,64.336Zm0,18.58a1.75,1.75,0,0,1,1.75-1.75H49.241a1.75,1.75,0,0,1,0,3.5H11.75A1.75,1.75,0,0,1,10,82.916ZM45.237,53.3a1.75,1.75,0,1,1,0,3.5H15.753a1.75,1.75,0,0,1,0-3.5Zm0,18.581a1.75,1.75,0,0,1,0,3.5H15.753a1.75,1.75,0,0,1,0-3.5ZM118,92.207a1.75,1.75,0,0,1-1.75,1.75H15.753a1.75,1.75,0,0,1,0-3.5h100.5A1.75,1.75,0,0,1,118,92.207Zm0,9.29a1.75,1.75,0,0,1-1.75,1.75H11.75a1.75,1.75,0,0,1,0-3.5h104.5A1.75,1.75,0,0,1,118,101.5Z" fill="url(#a)"/></svg>
