<?xml version="1.0"?>
<svg xmlns="http://www.w3.org/2000/svg" xmlns:xlink="http://www.w3.org/1999/xlink" width="512" height="512" viewBox="0 0 128 128"><defs><linearGradient id="a" x1="115.705" y1="112.125" x2="29.805" y2="26.225" gradientUnits="userSpaceOnUse"><stop offset="0" stop-color="#76e2f8"/><stop offset="1" stop-color="#b9dd39"/></linearGradient></defs><path d="M128,55.09V53.177a6.758,6.758,0,0,0-6.75-6.75h-7.714l4.239-6.5c.007-.01.009-.021.015-.031a1.741,1.741,0,0,0,.172-.371c.011-.036.023-.07.032-.106a1.7,1.7,0,0,0,.066-.448V33.5a25.42,25.42,0,0,0-13.879-22.7,1.75,1.75,0,1,0-1.6,3.115A21.929,21.929,0,0,1,114.56,33.5v3.72h-44V33.5a22.025,22.025,0,0,1,22-22,1.751,1.751,0,0,0,0-3.5,25.529,25.529,0,0,0-25.5,25.5v5.47a1.7,1.7,0,0,0,.065.448c.009.036.021.07.032.106a1.741,1.741,0,0,0,.172.371c.006.01.008.021.015.031l4.239,6.5H68.818a7.777,7.777,0,0,0-6.694,3.844L59.363,55H53.75V52.258a8.625,8.625,0,0,0-17.25,0V55H1.75A1.75,1.75,0,0,0,0,56.754v30.5A1.749,1.749,0,0,0,1.75,89H36.5v2.747a8.625,8.625,0,0,0,17.25,0V89h5.613l2.761,4.733a7.775,7.775,0,0,0,6.694,3.845h8.457l1.4,20.784A1.749,1.749,0,0,0,80.424,120h26.682a1.749,1.749,0,0,0,1.746-1.632l1.4-20.784h11a6.758,6.758,0,0,0,6.75-6.75V88.918a6.726,6.726,0,0,0-2.232-5,6.726,6.726,0,0,0,2.232-5V77a6.726,6.726,0,0,0-2.232-5A6.724,6.724,0,0,0,128,67V65.09a6.726,6.726,0,0,0-2.232-5A6.724,6.724,0,0,0,128,55.09ZM72.041,40.722h41.037l-3.722,5.7H75.763ZM3.5,85.5v-27h33v27Zm46.75,6.247a5.125,5.125,0,0,1-10.25,0V52.258a5.125,5.125,0,0,1,10.25,0V91.751ZM105.471,116.5H82.06L80.314,90.63a1.75,1.75,0,0,0-3.492.235l.217,3.217H68.818a4.265,4.265,0,0,1-3.671-2.108l-3.267-5.6a1.752,1.752,0,0,0-1.512-.869H53.75v-27h6.618a1.751,1.751,0,0,0,1.512-.868l3.267-5.6a4.263,4.263,0,0,1,3.671-2.108H99.726a6.257,6.257,0,0,1,6.25,6.25V67a3.254,3.254,0,0,1-3.25,3.25h-1.915A3.254,3.254,0,0,1,97.561,67V60.09a1.75,1.75,0,0,0-1.75-1.75H76.5a1.751,1.751,0,0,0-1.746,1.868l.309,4.593a1.75,1.75,0,1,0,3.493-.235l-.184-2.726H94.061V67a6.728,6.728,0,0,0,2.232,5,6.729,6.729,0,0,0-2.232,5v1.914a6.729,6.729,0,0,0,2.232,5,6.729,6.729,0,0,0-2.232,5v1.914a6.758,6.758,0,0,0,6.75,6.75h5.936ZM124.5,88.918v1.914a3.254,3.254,0,0,1-3.25,3.25H100.811a3.254,3.254,0,0,1-3.25-3.25V88.918a3.254,3.254,0,0,1,3.25-3.25H121.25A3.254,3.254,0,0,1,124.5,88.918ZM124.5,77v1.914a3.254,3.254,0,0,1-3.25,3.25H100.811a3.254,3.254,0,0,1-3.25-3.25V77a3.254,3.254,0,0,1,3.25-3.25H121.25A3.254,3.254,0,0,1,124.5,77Zm0-11.914V67a3.254,3.254,0,0,1-3.25,3.25H108.641a6.707,6.707,0,0,0,.835-3.25V61.84H121.25A3.254,3.254,0,0,1,124.5,65.09Zm-15.024-6.75V56.177a9.705,9.705,0,0,0-2.273-6.25H121.25a3.254,3.254,0,0,1,3.25,3.25V55.09a3.254,3.254,0,0,1-3.25,3.25ZM79.29,75.439l.291,4.318a1.751,1.751,0,0,1-1.629,1.864c-.04,0-.079,0-.119,0a1.749,1.749,0,0,1-1.744-1.632L75.8,75.674a1.75,1.75,0,1,1,3.492-.235Z" fill="url(#a)"/></svg>
