<?xml version="1.0"?>
<svg xmlns="http://www.w3.org/2000/svg" xmlns:xlink="http://www.w3.org/1999/xlink" width="512" height="512" viewBox="0 0 128 128"><defs><linearGradient id="a" x1="109.166" y1="109.305" x2="18.695" y2="18.834" gradientUnits="userSpaceOnUse"><stop offset="0" stop-color="#76e2f8"/><stop offset="1" stop-color="#b9dd39"/></linearGradient></defs><path d="M91.717,42.074A120.285,120.285,0,0,1,93.5,58.916,1.752,1.752,0,0,0,95.248,60.6H115.7a1.751,1.751,0,0,0,1.741-1.923,53.5,53.5,0,0,0-10.289-26.608,1.751,1.751,0,0,0-2.578-.256A60.64,60.64,0,0,1,92.611,40.22,1.747,1.747,0,0,0,91.717,42.074ZM105.439,35.7a50,50,0,0,1,8.287,21.4h-16.8a123.636,123.636,0,0,0-1.545-14.407A64.227,64.227,0,0,0,105.439,35.7ZM60.6,58.85a1.751,1.751,0,0,1-1.75,1.75H43.059a1.75,1.75,0,0,1,0-3.5H57.1V50.555a63.941,63.941,0,0,1-13.335-2.914,1.75,1.75,0,1,1,1.108-3.319A60.571,60.571,0,0,0,59,47.222a1.751,1.751,0,0,1,1.6,1.744Zm6.8,20.184a1.751,1.751,0,0,0,1.6,1.744,60.493,60.493,0,0,1,14.121,2.9,1.75,1.75,0,0,0,2.283-1.387,114.229,114.229,0,0,0,1.28-13.069A1.75,1.75,0,0,0,84.941,67.4H69.15a1.751,1.751,0,0,0-1.75,1.75ZM70.9,70.9H83.1c-.171,3-.458,5.96-.853,8.832A64.076,64.076,0,0,0,70.9,77.445Zm39.149-46.1a1.75,1.75,0,0,1,2.664-2.271,64.674,64.674,0,0,1,5.742,7.871,1.75,1.75,0,0,1-2.977,1.842A60.973,60.973,0,0,0,110.049,24.8ZM69.15,40.386a1.709,1.709,0,0,0,.175-.009,53.747,53.747,0,0,0,12.775-2.9A1.75,1.75,0,0,0,83.2,35.366C80.186,24.471,75.432,16.115,70.149,12.44A1.75,1.75,0,0,0,67.4,13.877V38.636a1.751,1.751,0,0,0,1.75,1.75Zm1.75-22.6c3.3,3.671,6.272,9.582,8.466,16.922A50.261,50.261,0,0,1,70.9,36.664ZM60.6,13.877a1.75,1.75,0,0,0-2.75-1.437C52.568,16.115,47.813,24.471,44.8,35.366a1.75,1.75,0,0,0,1.1,2.113,53.747,53.747,0,0,0,12.775,2.9,1.7,1.7,0,0,0,.175.009,1.75,1.75,0,0,0,1.75-1.75ZM57.1,36.664a50.317,50.317,0,0,1-8.467-1.951c2.2-7.34,5.167-13.251,8.467-16.922ZM60.6,69.15a1.751,1.751,0,0,0-1.75-1.75H43.059a1.751,1.751,0,0,0-1.749,1.823,114.522,114.522,0,0,0,1.28,13.069,1.752,1.752,0,0,0,1.729,1.477,1.734,1.734,0,0,0,.554-.091A60.571,60.571,0,0,1,59,80.778a1.751,1.751,0,0,0,1.6-1.744Zm-3.5,8.295a64.067,64.067,0,0,0-11.351,2.286c-.4-2.872-.681-5.829-.852-8.831H57.1ZM67.4,58.85a1.751,1.751,0,0,0,1.75,1.75H84.941a1.75,1.75,0,0,0,1.748-1.823,114.206,114.206,0,0,0-1.28-13.069,1.75,1.75,0,0,0-2.283-1.386,60.575,60.575,0,0,1-14.121,2.9,1.751,1.751,0,0,0-1.6,1.744Zm3.5-8.3a63.969,63.969,0,0,0,11.35-2.287c.395,2.872.682,5.829.853,8.832H70.9Zm12.376-35.4a1.748,1.748,0,0,0-.191,2.049,65.306,65.306,0,0,1,6.208,14.614,1.75,1.75,0,0,0,2.585,1A53.91,53.91,0,0,0,100,26.783a1.751,1.751,0,0,0,0-2.6,53.717,53.717,0,0,0-14.712-9.479A1.751,1.751,0,0,0,83.276,15.156ZM96.155,25.48a50.376,50.376,0,0,1-4.2,3.135A72.749,72.749,0,0,0,88.674,20.3,50.206,50.206,0,0,1,96.155,25.48ZM67.4,114.123a1.75,1.75,0,0,0,2.749,1.437c5.283-3.675,10.037-12.031,13.046-22.926A1.75,1.75,0,0,0,82.1,90.521a53.747,53.747,0,0,0-12.775-2.9A1.751,1.751,0,0,0,67.4,89.364Zm3.5-22.787a50.261,50.261,0,0,1,8.466,1.951c-2.194,7.34-5.167,13.251-8.466,16.922ZM22.084,31.371a1.746,1.746,0,0,0-1.232.7A53.52,53.52,0,0,0,10.563,58.677,1.752,1.752,0,0,0,12.305,60.6H32.752A1.751,1.751,0,0,0,34.5,58.916a120.349,120.349,0,0,1,1.782-16.842,1.751,1.751,0,0,0-.894-1.854A60.647,60.647,0,0,1,23.43,31.813,1.747,1.747,0,0,0,22.084,31.371ZM31.077,57.1h-16.8A50.012,50.012,0,0,1,22.56,35.7a64.169,64.169,0,0,0,10.062,6.991A123.49,123.49,0,0,0,31.077,57.1Zm11.637,56.193a1.75,1.75,0,0,0,2.2-2.5,65.327,65.327,0,0,1-6.21-14.614,1.749,1.749,0,0,0-2.584-1A53.858,53.858,0,0,0,28,101.217a1.75,1.75,0,0,0,0,2.6A53.714,53.714,0,0,0,42.714,113.293ZM36.042,99.385a73.026,73.026,0,0,0,3.285,8.318,50.3,50.3,0,0,1-7.483-5.183A50.264,50.264,0,0,1,36.042,99.385Zm.988-66.316a1.748,1.748,0,0,0,1.676-1.25A65.327,65.327,0,0,1,44.916,17.2a1.75,1.75,0,0,0-2.2-2.5A53.714,53.714,0,0,0,28,24.186a1.75,1.75,0,0,0,0,2.6,53.858,53.858,0,0,0,8.119,6.032A1.749,1.749,0,0,0,37.03,33.069ZM31.844,25.48A50.3,50.3,0,0,1,39.327,20.3a73.026,73.026,0,0,0-3.285,8.318A50.264,50.264,0,0,1,31.844,25.48ZM128,64A64.047,64.047,0,1,1,98.157,9.893a1.75,1.75,0,1,1-1.873,2.957,60.383,60.383,0,1,0,26.345,36.177,1.749,1.749,0,1,1,3.39-.866A64,64,0,0,1,128,64ZM20.852,95.931a1.746,1.746,0,0,0,1.232.7,1.685,1.685,0,0,0,.173.009,1.749,1.749,0,0,0,1.173-.451A60.647,60.647,0,0,1,35.389,87.78a1.751,1.751,0,0,0,.894-1.854A120.349,120.349,0,0,1,34.5,69.084,1.751,1.751,0,0,0,32.752,67.4H12.305a1.752,1.752,0,0,0-1.742,1.923A53.52,53.52,0,0,0,20.852,95.931ZM31.077,70.9a123.49,123.49,0,0,0,1.545,14.407A64.169,64.169,0,0,0,22.56,92.3a50.012,50.012,0,0,1-8.286-21.4Zm53.514,42.538a1.74,1.74,0,0,0,.7-.145A53.717,53.717,0,0,0,100,103.814a1.751,1.751,0,0,0,0-2.6,53.842,53.842,0,0,0-8.119-6.032,1.75,1.75,0,0,0-2.585,1A65.292,65.292,0,0,1,83.085,110.8a1.75,1.75,0,0,0,1.506,2.643Zm7.366-14.053a50.376,50.376,0,0,1,4.2,3.135,50.206,50.206,0,0,1-7.481,5.182A72.676,72.676,0,0,0,91.957,99.385ZM57.85,115.56a1.75,1.75,0,0,0,2.75-1.437V89.364a1.749,1.749,0,0,0-1.925-1.741,53.747,53.747,0,0,0-12.775,2.9,1.75,1.75,0,0,0-1.1,2.113C47.813,103.529,52.568,111.885,57.85,115.56ZM57.1,91.336v18.873c-3.3-3.671-6.272-9.582-8.467-16.922A50.317,50.317,0,0,1,57.1,91.336Zm48.642,5.3a1.671,1.671,0,0,0,.173-.009,1.746,1.746,0,0,0,1.232-.7,53.51,53.51,0,0,0,10.289-26.608A1.751,1.751,0,0,0,115.7,67.4H95.248A1.752,1.752,0,0,0,93.5,69.084a120.315,120.315,0,0,1-1.782,16.843,1.749,1.749,0,0,0,.894,1.854,60.618,60.618,0,0,1,11.958,8.406A1.749,1.749,0,0,0,105.742,96.638ZM96.923,70.9h16.8a50.009,50.009,0,0,1-8.287,21.4,64.128,64.128,0,0,0-10.061-6.99A123.677,123.677,0,0,0,96.923,70.9Z" fill="url(#a)"/></svg>
